<?xml version="1.0" encoding="UTF-8" standalone="no"?>
<svg width="32px" height="32px" viewBox="0 0 32 32" version="1.1" xmlns="http://www.w3.org/2000/svg" xmlns:xlink="http://www.w3.org/1999/xlink" xmlns:sketch="http://www.bohemiancoding.com/sketch/ns">
    <!-- Generator: Sketch 3.3 (11970) - http://www.bohemiancoding.com/sketch -->
    <title>lock-icon</title>
    <desc>Created with Sketch.</desc>
    <defs></defs>
    <g id="Page-1" stroke="none" stroke-width="1" fill="none" fill-rule="evenodd" sketch:type="MSPage">
        <g id="lock-icon" sketch:type="MSArtboardGroup">
            <circle id="Oval-1" fill="#D0011B" sketch:type="MSShapeGroup" cx="16" cy="16" r="16"></circle>
            <g id="1429890584_lock-70px" sketch:type="MSLayerGroup" transform="translate(7.000000, 5.000000)" fill="#FFFFFF">
                <g id="Group" sketch:type="MSShapeGroup">
                    <path d="M16,8.59090909 L16,6.68181818 C16,2.99154545 12.866,0 9,0 C5.134,0 2,2.99154545 2,6.68181818 L2,8.59090909 L0,8.59090909 L0,21 L18,21 L18,8.59090909 L16,8.59090909 L16,8.59090909 Z M4,6.68181818 C4,4.05013636 6.243,1.90909091 9,1.90909091 C11.757,1.90909091 14,4.05013636 14,6.68181818 L14,8.59090909 L4,8.59090909 L4,6.68181818 L4,6.68181818 Z M16,19.0909091 L2,19.0909091 L2,10.5 L16,10.5 L16,19.0909091 L16,19.0909091 Z" id="Shape"></path>
                    <path d="M8,14.9009318 L8,17.1818182 L10,17.1818182 L10,14.9009318 C10.305,14.6389091 10.5,14.2632955 10.5,13.8409091 C10.5,13.0500682 9.8285,12.4090909 9,12.4090909 C8.1715,12.4090909 7.5,13.0500682 7.5,13.8409091 C7.5,14.2632955 7.695,14.6389091 8,14.9009318 L8,14.9009318 Z" id="Shape"></path>
                </g>
            </g>
        </g>
    </g>
</svg>