<?xml version="1.0" encoding="UTF-8" standalone="no"?>
<svg width="236px" height="29px" viewBox="0 0 236 29" version="1.1" xmlns="http://www.w3.org/2000/svg" xmlns:xlink="http://www.w3.org/1999/xlink" xmlns:sketch="http://www.bohemiancoding.com/sketch/ns">
    <!-- Generator: Sketch 3.0.4 (8054) - http://www.bohemiancoding.com/sketch -->
    <title>logo-euro-insight</title>
    <desc>Created with Sketch.</desc>
    <defs></defs>
    <g id="Page-1" stroke="none" stroke-width="1" fill="none" fill-rule="evenodd" sketch:type="MSPage">
        <g id="logo-euro-insight" sketch:type="MSArtboardGroup" fill="#FFFFFF">
            <path d="M1.18591171,27.6402261 C0.875343801,27.6402261 0.620324621,27.5404909 0.421485409,27.3410204 C0.222646197,27.14155 0.122279737,26.887162 0.122279737,26.5765941 L0.056,2.10611508 C0.056,1.7961784 0.166466229,1.54052799 0.388029922,1.34168878 C0.609593616,1.14221833 0.875343801,1.0424831 1.18591171,1.0424831 L17.2445452,1.0424831 C17.7981388,1.0424831 18.120069,1.17567381 18.208442,1.441424 C18.296815,1.70717418 18.3416327,2.00637986 18.3416327,2.33904101 L18.3416327,4.16773053 C18.3416327,4.76614187 18.2633595,5.13162728 18.1087068,5.26481799 C17.9534228,5.39737747 17.5879374,5.46428844 17.0116193,5.46428844 L4.54345384,5.46428844 L4.54345384,11.3492979 L15.6153262,11.3492979 C15.9252628,11.3492979 16.1809132,11.4547142 16.3797525,11.6649157 C16.5792229,11.8757484 16.6789581,12.1364487 16.6789581,12.4463853 L16.6789581,14.7074712 C16.6789581,15.0180392 16.5792229,15.2787395 16.3797525,15.4889409 C16.180282,15.6997736 15.9252628,15.8045587 15.6153262,15.8045587 L4.54345384,15.8045587 L4.54345384,23.219052 L17.4440157,23.219052 C18.0203338,23.219052 18.3858192,23.2853317 18.5411031,23.4185224 C18.6957559,23.5517131 18.7740291,23.9171986 18.7740291,24.5156099 L18.7740291,26.3108439 C18.7740291,26.6435051 18.7292113,26.9483919 18.6408384,27.2255043 C18.5518341,27.5026167 18.2305352,27.6408573 17.6769416,27.6408573 L1.18591171,27.6408573 L1.18591171,27.6402261 Z" id="Shape" sketch:type="MSShapeGroup"></path>
            <path d="M41.3823631,19.1949251 C41.3823631,20.3696545 41.1551183,21.4673732 40.7006287,22.4861875 C40.246139,23.5062642 39.6256344,24.3982001 38.8391149,25.1626264 C38.0519641,25.9270527 37.137935,26.5311452 36.095765,26.9749038 C35.053595,27.4186624 33.9565076,27.6395949 32.8045026,27.6395949 L30.244211,27.6395949 C29.1357613,27.6395949 28.0942226,27.4350745 27.1189636,27.0241401 C26.1437046,26.6144682 25.2902741,26.0495124 24.558672,25.3286413 C23.82707,24.6084015 23.2450708,23.7606521 22.8133056,22.7853931 C22.3809093,21.8101341 22.1650267,20.7572332 22.1650267,19.6266902 L22.1650267,2.10485261 C22.1650267,1.3953438 22.5197811,1.0405894 23.2292899,1.0405894 L25.4569203,1.0405894 C25.9663274,1.0405894 26.2712142,1.17378011 26.3709494,1.43953029 C26.4706847,1.70528048 26.5205523,2.00448615 26.5205523,2.33714731 L26.5205523,19.626059 C26.5205523,20.1360973 26.6202875,20.6126802 26.8197579,21.0558076 C27.0192284,21.4995662 27.2906597,21.8865137 27.6346831,22.2191748 C27.9780753,22.551836 28.371335,22.8125363 28.8150937,23.0006445 C29.258221,23.1893839 29.7348039,23.283438 30.2448423,23.283438 L32.8051338,23.283438 C33.3814519,23.283438 33.9243146,23.1780217 34.4343529,22.9678202 C34.94376,22.7576188 35.3868874,22.4640942 35.7643663,22.0866153 C36.141214,21.7097677 36.4397884,21.2773713 36.6619833,20.7900574 C36.883547,20.3027435 36.9946445,19.7706119 36.9946445,19.1942938 L36.9946445,2.33714731 C36.9946445,2.00448615 37.049562,1.70591171 37.1606594,1.43953029 C37.2711257,1.17378011 37.5816936,1.0405894 38.0917319,1.0405894 L40.2859069,1.0405894 C41.0175089,1.0405894 41.3829943,1.3953438 41.3829943,2.10485261 L41.3829943,19.1949251 L41.3823631,19.1949251 Z" id="Shape" sketch:type="MSShapeGroup"></path>
            <path d="M58.3386136,1.04122063 C59.0916777,1.04122063 59.8068676,1.19650459 60.4829209,1.50644127 C61.1589743,1.81700918 61.7517045,2.22731231 62.2617428,2.73671944 C62.7717812,3.2467578 63.1814531,3.84516914 63.492021,4.53195347 C63.8025889,5.21936903 63.9578729,5.93960884 63.9578729,6.69267291 C63.9578729,7.95577533 63.6529861,8.99289541 63.0432125,9.80150821 C62.4334389,10.6107522 61.6519693,11.3366732 60.6994347,11.979271 C61.0541891,12.9103435 61.3975813,13.8193228 61.7302425,14.7055775 C62.0629036,15.5924635 62.3955648,16.5008116 62.7275947,17.4318841 C63.2597263,18.8944569 63.8025889,20.3633422 64.3568138,21.8372773 C64.9104074,23.3112124 65.4759945,24.7908286 66.0523126,26.2754947 C66.2296898,26.7192534 66.2126464,27.0569644 66.002445,27.2892591 C65.7916123,27.522185 65.4646322,27.6383324 65.0215049,27.6383324 L62.4946688,27.6383324 C62.1399144,27.6383324 61.8962574,27.5550093 61.7630667,27.3889943 C61.6305072,27.2229794 61.5187785,27.02919 61.4304056,26.8069951 L56.6431148,14.1393592 C55.4904786,14.7377705 54.3820289,15.3254509 53.3183969,15.901769 C52.254765,16.4780871 51.1235908,17.0764984 49.9267681,17.697003 L49.9267681,26.3411432 C49.9267681,26.6738044 49.8769005,26.9730101 49.7771653,27.2387603 C49.67743,27.5045104 49.3725432,27.6377011 48.8625049,27.6377011 L46.5016838,27.6377011 C46.1911159,27.6377011 45.9417778,27.5272349 45.7536696,27.30504 C45.5649301,27.0834763 45.470876,26.8398194 45.470876,26.5734379 L45.4045963,2.1029589 C45.4045963,1.83720872 45.5093814,1.59355178 45.7202141,1.37135685 C45.9304156,1.14979315 46.1911159,1.03869569 46.5016838,1.03869569 L58.3386136,1.03869569 L58.3386136,1.04122063 Z M49.9267681,5.4636572 L49.9267681,12.7115043 C50.3698955,12.4899406 50.885615,12.2349214 51.4726641,11.947078 C52.0597132,11.6592346 52.680849,11.3429855 53.3348091,10.9995934 C53.9881379,10.6562012 54.6364169,10.312809 55.2796459,9.96878564 C55.9222438,9.62539347 56.5099241,9.29273232 57.0420557,8.97080216 C57.5741873,8.65013448 58.0337268,8.35092881 58.4219367,8.07318515 C58.8095154,7.79670396 59.0588534,7.56945915 59.1699509,7.39145071 L59.1699509,7.42427496 C59.3031416,7.22480451 59.3694213,6.99187858 59.3694213,6.72612839 C59.3694213,6.37200522 59.2475929,6.07279955 59.0039359,5.82851138 C58.7596478,5.58485444 58.4497111,5.46239473 58.0728634,5.46239473 L49.9267681,5.46239473 L49.9267681,5.4636572 Z" id="Shape" sketch:type="MSShapeGroup"></path>
            <path d="M91.4866884,16.9010149 C91.4866884,18.4304988 91.1818016,19.8659285 90.572028,21.2066729 C89.9622544,22.5480486 89.1309171,23.7170969 88.0786474,24.7144491 C87.0257464,25.7118014 85.7954683,26.4989521 84.3878129,27.0752702 C82.9801575,27.6515883 81.4790793,27.940063 79.8826844,27.940063 C78.2862896,27.940063 76.7845801,27.6515883 75.377556,27.0752702 C73.9699006,26.4989521 72.7345726,25.7118014 71.6703094,24.7144491 C70.6060462,23.7170969 69.769659,22.5480486 69.1598854,21.2066729 C68.5501118,19.8659285 68.245225,18.4304988 68.245225,16.9010149 L68.245225,11.6806966 C68.245225,10.1512127 68.5551617,8.71641422 69.1762975,7.37503858 C69.7968021,6.03366295 70.6338205,4.87029575 71.6867215,3.88367451 C72.7389912,2.89768451 73.9749505,2.11621485 75.3939681,1.53989675 C76.8123545,0.963578655 78.3197451,0.675735224 79.9161399,0.675735224 C81.5125347,0.675735224 83.013613,0.96420989 84.4212684,1.53989675 C85.8282925,2.11684608 87.0592019,2.89768451 88.1121029,3.88367451 C89.1643726,4.87029575 89.99066,6.03366295 90.5890714,7.37503858 C91.1874827,8.71641422 91.4866884,10.1512127 91.4866884,11.6806966 L91.4866884,16.9010149 L91.4866884,16.9010149 Z M86.9979721,11.6806966 C86.9979721,10.7496241 86.8092326,9.8741003 86.4330162,9.05412526 C86.0555373,8.23415023 85.5461302,7.51391041 84.9035324,6.89277459 C84.2603033,6.27290124 83.5072392,5.78495612 82.6424465,5.43020172 C81.7782849,5.07607855 80.8579434,4.89807011 79.8826844,4.89807011 C78.9074255,4.89807011 77.9820341,5.08112843 77.1065103,5.44661384 C76.2303553,5.81273049 75.4716101,6.30004437 74.8290123,6.90918671 C74.1857832,7.5189603 73.6757448,8.23415023 73.2995284,9.05349403 C72.9226808,9.87346906 72.7345726,10.7496241 72.7345726,11.6800653 L72.7345726,16.9003837 C72.7345726,17.8314562 72.9226808,18.70698 73.2995284,19.526955 C73.6763761,20.3475613 74.1857832,21.0678011 74.8290123,21.6883057 C75.4716101,22.3088103 76.2303553,22.7967554 77.1065103,23.1508785 C77.9820341,23.5056329 78.9074255,23.6830102 79.8826844,23.6830102 C80.8579434,23.6830102 81.7776537,23.5062642 82.6424465,23.1508785 C83.5072392,22.7967554 84.2603033,22.3088103 84.9035324,21.6883057 C85.5461302,21.0684323 86.0561686,20.3475613 86.4330162,19.526955 C86.8092326,18.7076112 86.9979721,17.8314562 86.9979721,16.9003837 L86.9979721,11.6806966 L86.9979721,11.6806966 Z" id="Shape" sketch:type="MSShapeGroup"></path>
            <path d="M108.908791,26.5759629 C108.908791,26.8417131 108.803374,27.0860012 108.593173,27.3075649 C108.38234,27.5297599 108.122271,27.6402261 107.811703,27.6402261 L105.550617,27.6402261 C105.240049,27.6402261 104.996393,27.5297599 104.819015,27.3075649 C104.641638,27.0860012 104.553265,26.8423443 104.553265,26.5759629 L104.486985,2.10548384 C104.486985,1.83973366 104.586721,1.59607672 104.786191,1.37388179 C104.985662,1.1523181 105.240049,1.04122063 105.550617,1.04122063 L107.811703,1.04122063 C108.122271,1.04122063 108.38234,1.1523181 108.593173,1.37388179 C108.803374,1.59607672 108.908791,1.83910242 108.908791,2.10548384 L108.908791,26.5759629 L108.908791,26.5759629 Z" id="Shape" sketch:type="MSShapeGroup"></path>
            <path d="M133.245448,26.5759629 C133.245448,26.8417131 133.140032,27.0860012 132.92983,27.3075649 C132.718997,27.5297599 132.458297,27.6402261 132.14836,27.6402261 L129.887274,27.6402261 C129.46624,27.6402261 129.155672,27.4742111 128.956202,27.14155 C127.95885,25.6568839 126.988641,24.2100919 126.047468,22.8024365 C125.105034,21.3954124 124.16323,19.998488 123.221427,18.6129259 C122.278992,17.227995 121.331507,15.8253895 120.378973,14.4070031 C119.425807,12.9886167 118.439186,11.5260438 117.41974,10.018022 L117.41974,26.5753316 C117.41974,26.8410818 117.314324,27.08537 117.104122,27.3069337 C116.89329,27.5291286 116.633221,27.6395949 116.322653,27.6395949 L114.028743,27.6395949 C113.718175,27.6395949 113.474518,27.5291286 113.297141,27.3069337 C113.119763,27.08537 113.03139,26.8417131 113.03139,26.5753316 L112.965111,2.10485261 C112.965111,1.83910242 113.064846,1.59544548 113.264316,1.37325056 C113.463787,1.15168686 113.718175,1.0405894 114.028743,1.0405894 L116.489299,1.0405894 C116.88824,1.0405894 117.187446,1.21859783 117.386916,1.572721 L117.386916,1.53926552 L128.790818,18.6956177 L128.790818,2.10485261 C128.790818,1.83910242 128.895603,1.59544548 129.106436,1.37325056 C129.316638,1.15168686 129.577338,1.0405894 129.887906,1.0405894 L132.148992,1.0405894 C132.458928,1.0405894 132.719629,1.15168686 132.930461,1.37325056 C133.140663,1.59544548 133.246079,1.83847119 133.246079,2.10485261 L133.246079,26.5759629 L133.245448,26.5759629 Z" id="Shape" sketch:type="MSShapeGroup"></path>
            <path d="M156.053884,19.3943955 C156.053884,20.0376246 155.992654,20.6802224 155.870825,21.3228203 C155.748997,21.9660493 155.576669,22.5808728 155.355737,23.1679219 C155.134173,23.7556022 154.868423,24.2984649 154.557855,24.797141 C154.247287,25.2958171 153.903895,25.7111701 153.527047,26.0438313 C152.773352,26.7091536 151.881416,27.1907863 150.850609,27.4906233 C149.819801,27.7898289 148.706301,27.9394318 147.509479,27.9394318 L144.982642,27.9394318 C143.519438,27.9394318 142.178063,27.6017207 140.959147,26.9256674 C139.7396,26.2496141 138.775703,25.3355849 138.066194,24.1823175 C137.57888,23.4734399 137.268312,22.7525689 137.135122,22.0215981 C137.002562,21.3348137 136.92997,20.8083633 136.919239,20.4422466 C136.907877,20.07613 136.902827,19.7055947 136.902827,19.3281158 L136.902827,19.3943955 C136.902827,19.0617344 136.952694,18.7625287 137.05243,18.4967785 C137.152165,18.2310283 137.457052,18.0978376 137.96709,18.0978376 L140.228176,18.0978376 C140.760308,18.0978376 141.092969,18.3635878 141.225528,18.8957194 C141.291808,19.1179143 141.325263,19.2839293 141.325263,19.3943955 L141.325263,19.9599826 C141.325263,20.0489868 141.330313,20.1651342 141.341676,20.3090559 C141.352407,20.4536089 141.368819,20.6366672 141.391543,20.8575996 C141.568289,21.6782059 141.995004,22.3542592 142.671689,22.8857596 C143.347111,23.4178912 144.11785,23.6836414 144.982642,23.6836414 L147.509479,23.6836414 C148.506831,23.6836414 149.388036,23.4292534 150.153093,22.9192151 C150.91752,22.409808 151.377059,21.7116614 151.532974,20.8247754 C151.555067,20.7143092 151.57148,20.6032117 151.582842,20.4927455 C151.593573,20.3822792 151.599254,20.2711818 151.599254,20.1600843 C151.599254,20.0496181 151.604304,19.9107462 151.615666,19.7447313 C151.626397,19.5780851 151.615666,19.4070202 151.582211,19.229643 C151.548755,19.0522658 151.493206,18.8748886 151.416196,18.6975114 C151.337922,18.5201342 151.233137,18.3648503 151.100578,18.2322908 C150.635357,17.8333499 149.925217,17.522782 148.972683,17.3012183 C148.019517,17.0796546 146.944523,16.8252667 145.7477,16.536792 C144.683437,16.2931351 143.624855,16.0160226 142.572585,15.7054547 C141.519684,15.395518 140.572199,14.990896 139.730131,14.4922199 C138.887432,13.9935438 138.205697,13.3673581 137.685559,12.6136628 C137.164158,11.8605987 136.904089,10.9295262 136.904089,9.82107651 L136.904089,9.35585588 C136.904089,9.00110147 136.909139,8.64129718 136.920501,8.27518054 C136.931232,7.90969513 136.991831,7.50507311 137.10356,7.06194573 L137.070104,7.09540121 C137.247482,6.16432871 137.580143,5.31152943 138.067457,4.53510965 C138.55477,3.7593211 139.153182,3.08831766 139.862691,2.52336181 C140.572199,1.95840595 141.3644,1.51527856 142.239924,1.19397965 C143.115448,0.872680729 144.029477,0.711715653 144.983274,0.711715653 L147.51011,0.711715653 C148.507462,0.711715653 149.466309,0.883411734 150.386019,1.2268039 C151.305729,1.5708273 152.142117,2.04172905 152.896443,2.64014039 C153.649507,3.23855174 154.237188,4.07557013 154.658853,5.15056435 C155.079887,6.2261898 155.267995,7.40660036 155.22444,8.69179603 C155.201716,9.02382595 155.146167,9.32303162 155.058425,9.58941305 C154.969421,9.85516323 154.670215,9.98835394 154.160808,9.98835394 L151.966633,9.98835394 C151.656065,9.98835394 151.406727,9.87788771 151.217988,9.65632402 C151.029879,9.43476033 150.923832,9.19110339 150.90237,8.92472197 C150.857552,7.50633559 150.547615,6.50330223 149.971297,5.91562189 C149.394348,5.32857279 148.575004,5.034417 147.511372,5.034417 L144.984536,5.034417 C144.563502,5.034417 144.153199,5.10637786 143.754258,5.25029957 C143.355317,5.39485252 142.994882,5.59937286 142.674214,5.86512304 C142.352284,6.13087323 142.075803,6.44207237 141.842877,6.79619554 C141.609951,7.15094995 141.448986,7.53915984 141.360613,7.95956274 L141.360613,7.92610726 C141.315795,8.21458192 141.288021,8.58069857 141.27729,9.02319472 C141.265927,9.46695334 141.471079,9.89934972 141.892744,10.3197526 C142.335872,10.7635113 142.812455,11.0513547 143.322493,11.1845454 L147.145887,12.2488086 C148.143239,12.5372833 148.99667,12.7752591 149.706178,12.9633673 C150.415687,13.1521067 150.980643,13.3238028 151.402308,13.4784555 C151.845436,13.6337395 152.260789,13.8060668 152.648999,13.9935438 C153.036577,14.1822832 153.397013,14.3874348 153.729674,14.6089985 C154.416458,15.0742191 154.976364,15.706086 155.408761,16.5039677 C155.841157,17.3018495 156.053884,18.2638526 156.053884,19.3943955 L156.053884,19.3943955 Z" id="Shape" sketch:type="MSShapeGroup"></path>
            <path d="M163.932966,26.5759629 C163.932966,26.8417131 163.82755,27.0860012 163.617348,27.3075649 C163.406516,27.5297599 163.146447,27.6402261 162.835879,27.6402261 L160.574793,27.6402261 C160.264225,27.6402261 160.020568,27.5297599 159.843191,27.3075649 C159.665814,27.0860012 159.577441,26.8423443 159.577441,26.5759629 L159.511161,2.10548384 C159.511161,1.83973366 159.610896,1.59607672 159.810367,1.37388179 C160.009837,1.1523181 160.264225,1.04122063 160.574793,1.04122063 L162.835879,1.04122063 C163.146447,1.04122063 163.406516,1.1523181 163.617348,1.37388179 C163.82755,1.59607672 163.932966,1.83910242 163.932966,2.10548384 L163.932966,26.5759629 L163.932966,26.5759629 Z" id="Shape" sketch:type="MSShapeGroup"></path>
            <path d="M178.761953,0.576 C179.913958,0.576 181.005995,0.753377202 182.036803,1.10813161 C183.067611,1.46288601 184.015095,1.95588101 184.879257,2.58774784 C185.74405,3.21961467 186.519207,3.97899109 187.206623,4.86524586 C187.893407,5.75213187 188.469725,6.7387531 188.935577,7.82447833 C189.09023,8.17923273 189.068768,8.48916941 188.869297,8.75555083 C188.669827,9.02130101 188.348528,9.15449172 187.9054,9.15449172 L185.511755,9.15449172 C185.090721,9.15449172 184.768791,8.94429027 184.547858,8.52262489 L184.581314,8.55608038 C183.960809,7.42553743 183.168608,6.53360154 182.204081,5.87964146 C181.240184,5.22631262 180.092597,4.89870135 178.763215,4.89870135 C177.854236,4.89870135 177.005855,5.07039743 176.219336,5.41378959 C175.432185,5.75781299 174.73972,6.22303362 174.141308,6.81008273 C173.542897,7.39776306 173.071364,8.09022851 172.727972,8.8881103 C172.383948,9.68599209 172.212884,10.5286916 172.212884,11.4149464 L172.212884,16.8012797 C172.212884,17.9539159 172.383948,18.924125 172.727972,19.7106446 C173.071364,20.4977953 173.542897,21.1902608 174.141308,21.7886721 C174.73972,22.3656215 175.426504,22.825161 176.202924,23.1685531 C176.978712,23.5125765 177.832143,23.6836414 178.763215,23.6836414 C180.048411,23.6836414 181.245234,23.3901168 182.353683,22.8024365 C183.461502,22.2153874 184.30357,21.3228203 184.880519,20.1259976 C185.102083,19.6386837 185.268098,18.9954546 185.379196,18.1975728 C185.423382,17.7765387 185.462519,17.4609209 185.495343,17.2500882 C185.528798,17.0398868 185.545211,16.9231082 185.545211,16.9010149 L179.826216,16.9010149 C179.537741,16.9010149 179.288403,16.7905487 179.078202,16.5683538 C178.867369,16.3467901 178.762584,16.1031331 178.762584,15.8367517 L178.762584,13.7751363 C178.762584,13.0656275 179.116707,12.7108731 179.826216,12.7108731 L188.670458,12.7108731 C189.357242,12.7108731 189.701266,13.0656275 189.701266,13.7751363 C189.701266,14.0194244 189.706316,14.2296259 189.717678,14.4063719 C189.728409,14.5843803 189.73409,14.7838507 189.73409,15.0047832 C189.756183,15.2490714 189.767545,15.4813661 189.767545,15.7029298 L189.767545,16.3682521 C189.767545,16.4793496 189.756183,16.67882 189.73409,16.9666634 C189.711997,17.2551381 189.678541,17.6319857 189.634355,18.0972064 C189.589537,18.562427 189.540301,18.9897735 189.484752,19.3773522 C189.429203,19.7655621 189.356611,20.1146353 189.268869,20.424572 C189.090861,21.0450766 188.847835,21.6548502 188.537267,22.2532615 C188.226699,22.8516729 187.827127,23.4614465 187.340445,24.081951 C186.276181,25.4340577 185.018129,26.4314099 183.566918,27.0740078 C182.115076,27.7166056 180.513632,28.0050803 178.762584,27.9388005 C177.254562,27.8939828 175.841857,27.6010895 174.523206,27.0575956 C173.204555,26.514733 172.051287,25.7610377 171.065297,24.7965097 C170.079307,23.8319818 169.302887,22.6742957 168.737932,21.322189 C168.172976,19.9700824 167.890182,18.4626918 167.890182,16.8000172 L167.890182,11.4136839 C167.890182,9.9290178 168.178026,8.52704354 168.754344,7.20776115 C169.330662,5.88974123 170.10645,4.74215492 171.081709,3.76689593 C172.056968,2.79163693 173.203923,2.01647963 174.523206,1.43953029 C175.841226,0.864474666 177.253931,0.576 178.761953,0.576 L178.761953,0.576 Z" id="Shape" sketch:type="MSShapeGroup"></path>
            <path d="M197.812643,13.742312 L208.186369,9.2870512 L208.186369,2.33840978 C208.186369,2.00574862 208.241286,1.70717418 208.352384,1.44079276 C208.46285,1.17504258 208.773418,1.04185187 209.283456,1.04185187 L211.511087,1.04185187 C211.821023,1.04185187 212.087405,1.15294933 212.308968,1.37451303 C212.530532,1.59670796 212.64163,1.83973366 212.64163,2.10611508 L212.64163,26.5765941 C212.64163,26.8423443 212.530532,27.0866325 212.308968,27.3081962 C212.086774,27.5303911 211.821023,27.6408573 211.511087,27.6408573 L209.283456,27.6408573 C208.773418,27.6408573 208.46285,27.5082979 208.352384,27.2419164 C208.241286,26.9761662 208.186369,26.6763293 208.186369,26.3442994 L208.186369,14.1753396 L197.812643,18.5643207 L197.812643,26.3442994 C197.812643,26.6769606 197.767825,26.9761662 197.680084,27.2419164 C197.591079,27.5076666 197.26978,27.6408573 196.715556,27.6408573 L194.45447,27.6408573 C194.143902,27.6408573 193.900245,27.5303911 193.722868,27.3081962 C193.54549,27.0866325 193.457117,26.8429755 193.457117,26.5765941 L193.390838,2.10611508 C193.390838,1.84036489 193.490573,1.59670796 193.690043,1.37451303 C193.889514,1.15294933 194.143902,1.04185187 194.45447,1.04185187 L196.715556,1.04185187 C197.269149,1.04185187 197.591079,1.17504258 197.680084,1.44079276 C197.768457,1.70654295 197.812643,2.00574862 197.812643,2.33840978 L197.812643,13.742312 L197.812643,13.742312 Z" id="Shape" sketch:type="MSShapeGroup"></path>
            <path d="M227.602544,5.33046649 L227.602544,26.3430369 C227.602544,26.6756981 227.552677,26.9749038 227.452942,27.240654 C227.353206,27.5064041 227.04832,27.6395949 226.538281,27.6395949 L224.244371,27.6395949 C223.734333,27.6395949 223.429446,27.5070354 223.330342,27.240654 C223.230607,26.9749038 223.180739,26.6750669 223.180739,26.3430369 L223.180739,5.33046649 L216.730143,5.33046649 C216.153193,5.33046649 215.787708,5.2471434 215.633055,5.08112843 C215.477771,4.91448224 215.400129,4.56604019 215.400129,4.03390858 L215.400129,2.33777854 C215.400129,2.00511738 215.449997,1.70654295 215.549732,1.44016153 C215.649467,1.17441134 215.953723,1.04122063 216.463761,1.04122063 L234.185069,1.04122063 C234.694476,1.04122063 235.004413,1.17441134 235.116142,1.44016153 C235.226608,1.70591171 235.282157,2.00511738 235.282157,2.33777854 L235.282157,4.03390858 C235.282157,4.56604019 235.210196,4.91511347 235.066274,5.08112843 C234.921721,5.2471434 234.561917,5.33046649 233.985599,5.33046649 L227.602544,5.33046649 L227.602544,5.33046649 Z" id="Shape" sketch:type="MSShapeGroup"></path>
        </g>
    </g>
</svg>