<?xml version="1.0" encoding="UTF-8" standalone="no"?>
<svg width="26px" height="26px" viewBox="0 0 26 26" version="1.1" xmlns="http://www.w3.org/2000/svg" xmlns:xlink="http://www.w3.org/1999/xlink" xmlns:sketch="http://www.bohemiancoding.com/sketch/ns">
    <!-- Generator: Sketch 3.2.2 (9983) - http://www.bohemiancoding.com/sketch -->
    <title>print</title>
    <desc>Created with Sketch.</desc>
    <defs></defs>
    <g id="Page-1" stroke="none" stroke-width="1" fill="none" fill-rule="evenodd" sketch:type="MSPage">
        <g id="print" sketch:type="MSArtboardGroup">
            <rect id="Rectangle-path" sketch:type="MSShapeGroup" x="1" y="1" width="24" height="24"></rect>
            <circle id="Oval" fill="#000000" sketch:type="MSShapeGroup" cx="22" cy="11" r="1"></circle>
            <path d="M20,8 L20,1 L6,1 L6,8" id="Shape" stroke="#000000" stroke-width="2" sketch:type="MSShapeGroup"></path>
            <path d="M20,15 L20,25 L6,25 L6,15 L20,15 L20,15 Z" id="Shape" stroke="#000000" stroke-width="2" sketch:type="MSShapeGroup"></path>
            <path d="M5,20 L2,20 C1.42933333,20 1,19.56992 1,19 L1,9 C1,8.43008 1.42933333,8 2,8 L23,8 C23.5706667,8 24,8.43008 24,9 L24,19 C24,19.56992 23.5706667,20 23,20 L20,20" id="Shape" stroke="#000000" stroke-width="2" sketch:type="MSShapeGroup"></path>
            <path d="M17.8,17.8 L8.2,17.8" id="Shape" stroke="#000000" stroke-width="2" sketch:type="MSShapeGroup"></path>
            <path d="M15.88,19.72 L8.2,19.72" id="Shape" stroke="#000000" stroke-width="2" sketch:type="MSShapeGroup"></path>
            <path d="M17.8,21.64 L8.2,21.64" id="Shape" stroke="#000000" stroke-width="2" sketch:type="MSShapeGroup"></path>
        </g>
    </g>
</svg>