<?xml version="1.0" encoding="UTF-8" standalone="no"?>
<svg width="307px" height="158px" viewBox="0 0 307 158" version="1.1" xmlns="http://www.w3.org/2000/svg" xmlns:xlink="http://www.w3.org/1999/xlink" xmlns:sketch="http://www.bohemiancoding.com/sketch/ns">
    <!-- Generator: Sketch 3.0.4 (8054) - http://www.bohemiancoding.com/sketch -->
    <title>scale</title>
    <desc>Created with Sketch.</desc>
    <defs></defs>
    <g id="Page-1" stroke="none" stroke-width="1" fill="none" fill-rule="evenodd" sketch:type="MSPage">
        <g id="scale" sketch:type="MSArtboardGroup" fill="#9C9BA0">
            <circle id="Oval" sketch:type="MSShapeGroup" cx="153" cy="153" r="5"></circle>
            <path d="M75.7087041,136.430599 L3.10034642,122.316964 L2.71872843,124.280219 L74.9803052,138.326446 L76.5154757,138.624853 L76.8970937,136.661599 L75.7087041,136.430599 L75.7087041,136.430599 Z" id="Path" sketch:type="MSShapeGroup"></path>
            <path d="M80.4834364,121.507986 L11.9021073,93.7993306 L11.1528941,95.6536983 L79.4066756,123.230016 L80.856702,123.815865 L81.6059152,121.961497 L80.4834364,121.507986 L80.4834364,121.507986 Z" id="Path" sketch:type="MSShapeGroup"></path>
            <path d="M87.7691487,108.356057 L26.4474396,66.9940423 L25.3290538,68.6521175 L86.3578876,109.816586 L87.6544226,110.69111 L88.7728084,109.033034 L87.7691487,108.356057 L87.7691487,108.356057 Z" id="Path" sketch:type="MSShapeGroup"></path>
            <path d="M97.8428793,96.3593641 L45.5400672,44.056552 L44.1258537,45.4707656 L96.1788651,97.523777 L97.2847121,98.629624 L98.6989256,97.2154104 L97.8428793,96.3593641 L97.8428793,96.3593641 Z" id="Path" sketch:type="MSShapeGroup"></path>
            <path d="M110.083434,86.5814612 L68.7214191,25.2597521 L67.063344,26.3781379 L108.227812,87.4069717 L109.102336,88.7035067 L110.760411,87.5851209 L110.083434,86.5814612 L110.083434,86.5814612 Z" id="Path" sketch:type="MSShapeGroup"></path>
            <path d="M124.011561,79.4058259 L95.110216,11.3185248 L93.2692063,12.099987 L122.032517,79.8621001 L122.643583,81.3016811 L124.484592,80.5202189 L124.011561,79.4058259 L124.011561,79.4058259 Z" id="Path" sketch:type="MSShapeGroup"></path>
            <path d="M138.463155,75.2577845 L124.34952,2.64942675 L122.386266,3.03104474 L136.432493,75.2926216 L136.7309,76.827792 L138.694155,76.4461741 L138.463155,75.2577845 L138.463155,75.2577845 Z" id="Path" sketch:type="MSShapeGroup"></path>
            <path d="M154.069302,73.8980445 L154.069302,-0.0693016929 L152.069302,-0.0693016929 L152.069302,73.544773 L152.069302,75.1086768 L154.069302,75.1086768 L154.069302,73.8980445 L154.069302,73.8980445 Z" id="Path" sketch:type="MSShapeGroup"></path>
            <path d="M169.638702,75.6394024 L183.752337,3.03104472 L181.789083,2.64942673 L167.742855,74.9110035 L167.444449,76.446174 L169.407703,76.827792 L169.638702,75.6394024 L169.638702,75.6394024 Z" id="Path" sketch:type="MSShapeGroup"></path>
            <path d="M184.561315,80.4141347 L212.269971,11.8328056 L210.415603,11.0835924 L182.839286,79.3373739 L182.253437,80.7874003 L184.107805,81.5366135 L184.561315,80.4141347 L184.561315,80.4141347 Z" id="Path" sketch:type="MSShapeGroup"></path>
            <path d="M197.713244,87.699847 L239.075259,26.3781379 L237.417184,25.259752 L196.252716,86.2885858 L195.378192,87.5851209 L197.036267,88.7035067 L197.713244,87.699847 L197.713244,87.699847 Z" id="Path" sketch:type="MSShapeGroup"></path>
            <path d="M209.709938,97.7735776 L262.01275,45.4707655 L260.598536,44.056552 L208.545525,96.1095634 L207.439678,97.2154104 L208.853891,98.6296239 L209.709938,97.7735776 L209.709938,97.7735776 Z" id="Path" sketch:type="MSShapeGroup"></path>
            <path d="M219.48784,110.014132 L280.80955,68.6521174 L279.691164,66.9940422 L218.66233,108.15851 L217.365795,109.033034 L218.484181,110.691109 L219.48784,110.014132 L219.48784,110.014132 Z" id="Path" sketch:type="MSShapeGroup"></path>
            <path d="M226.663476,123.942259 L294.750777,95.0409143 L293.969315,93.1999046 L226.207202,121.963215 L224.767621,122.574281 L225.549083,124.415291 L226.663476,123.942259 L226.663476,123.942259 Z" id="Path" sketch:type="MSShapeGroup"></path>
            <path d="M230.811517,138.393854 L303.419875,124.280218 L303.038257,122.316964 L230.77668,136.363192 L229.24151,136.661599 L229.623128,138.624853 L230.811517,138.393854 L230.811517,138.393854 Z" id="Path" sketch:type="MSShapeGroup"></path>
            <path d="M232.171257,154 L306.138603,154 L306.138603,152 L232.524529,152 L230.960625,152 L230.960625,154 L232.171257,154 L232.171257,154 Z" id="Path" sketch:type="MSShapeGroup"></path>
            <path d="M73.9673462,152 L0,152 L0,154 L73.6140747,154 L75.1779785,154 L75.1779785,152 L73.9673462,152 L73.9673462,152 Z" id="Path" sketch:type="MSShapeGroup"></path>
        </g>
    </g>
</svg>