<?xml version="1.0" encoding="utf-8"?>
<!-- Generator: Adobe Illustrator 16.0.0, SVG Export Plug-In . SVG Version: 6.00 Build 0)  -->
<!DOCTYPE svg PUBLIC "-//W3C//DTD SVG 1.1//EN" "http://www.w3.org/Graphics/SVG/1.1/DTD/svg11.dtd">
<svg version="1.1" id="Camada_1" xmlns="http://www.w3.org/2000/svg" xmlns:xlink="http://www.w3.org/1999/xlink" x="0px" y="0px"
	 width="484.648px" height="259.099px" viewBox="0 0 484.648 259.099" enable-background="new 0 0 484.648 259.099"
	 xml:space="preserve">
<g id="Y527l6.tif">
	<g>
		<path fill-rule="evenodd" clip-rule="evenodd" d="M346.994,237.715c10.129,3.355,20.08,8.376,30.512,9.752
			c22.991,3.033,45.938,1.826,67.198-9.135c18.868-9.727,27.433-25.939,29.552-46.64c2.027-19.812-6.59-34.568-20.672-46.821
			c-24.832-21.606-54.447-32.155-86.729-35.596c-9.205-0.981-18.604-0.034-27.908-0.25c-2.977-0.069-3.959,1.267-4.814,3.744
			c-3.637,10.532-9.332,19.847-17.205,27.761c-5.99,6.021-13.066,9.602-21.792,9.503c-4.662-0.053-9.335,0.42-13.989,0.265
			c-4.203-0.14-6.578,1.494-8.426,5.344c-1.834,3.823-4.516,7.331-7.326,10.539c-0.902,1.029-3.838,1.481-5.09,0.803
			c-8.551-4.632-17.008-3.674-25.471-0.131c-3.827,1.603-7.467,3.646-11.226,5.419c-4.218,1.989-8.279,1.248-9.745-1.693
			c-1.539-3.086,0.466-6.954,4.367-9.299c11.218-6.743,24.216-7.964,36.306-11.987c2.338-0.778,4.412-2.35,6.608-3.556
			c-0.067-0.643-0.135-1.286-0.201-1.929c-8.113-1.896-16.221-3.819-24.352-5.636c-0.697-0.156-1.578,0.339-2.334,0.635
			c-12.658,4.955-25.253,10.081-38.022,14.727c-1.909,0.694-4.632-0.846-6.979-1.352c0.972-2.252,1.319-5.56,3.025-6.57
			c6.38-3.778,13.206-6.804,21.058-10.705c-2.802-0.285-4.496-0.603-6.191-0.608c-27.479-0.077-54.959-0.366-82.434-0.05
			c-13.094,0.15-24.377,4.909-31.869,16.47c-0.533,0.824-1.184,1.717-2.004,2.19c-9.947,5.731-19.803,11.648-30.001,16.896
			c-2.797,1.439-7.415,2.208-9.236-1.909c-1.588-3.588,1.076-6.011,4.195-7.936c11.157-6.887,23.164-12.741,31.481-23.359
			c3.977-5.076,7.416-10.597,10.805-16.097c2.046-3.321,1.021-5.694-3.107-6.36c-12.312-1.985-23.365,1.317-33.524,8.083
			c-3.039,2.024-5.685,4.629-8.656,6.766c-1.573,1.131-3.398,2.375-5.218,2.574c-2.046,0.224-5.779-0.255-6.021-1.164
			c-0.595-2.229-0.5-5.7,0.896-7.227c7.235-7.913,15.449-14.709,26.041-17.751c4.267-1.225,8.676-1.953,12.652-2.825
			c-4.172-4.657-8.777-9.92-13.521-15.055c-4.655-5.041-10.507-6.867-17.365-7.354c-11.729-0.833-23.396-2.54-35.081-3.945
			c-1.299-0.156-2.582-0.651-3.811-1.144C-1.868,69.789-3.428,64.399,6.072,54.125C18.667,40.501,34.198,32.05,52.736,29.376
			c8.224-1.187,16.429-2.543,24.585-4.122c1.71-0.331,3.411-1.736,4.69-3.059c3.681-3.805,6.899-8.085,10.774-11.666
			c2.934-2.711,6.518-2.867,10.03-0.229c3.62,2.719,3.126,6.155,1.444,9.292c-1.994,3.718-4.73,7.038-7.046,10.387
			c7.188-1.226,14.884-2.856,22.663-3.786c10.393-1.242,20.867-1.802,31.274-2.944c3.874-0.426,7.942-1.046,11.435-2.642
			c19.885-9.087,40.127-16.851,62.006-19.653c33.215-4.254,61.025,5.642,83.05,31.17c11.181,12.96,20.169,27.403,27.069,42.92
			c3.047,6.851,3.246,14.969,4.906,23.359c5.676,0,12.629-0.353,19.535,0.059c37.387,2.229,71.387,13.681,100.314,38.087
			c10.828,9.136,20.17,19.917,23.317,34.077c6.616,29.752-3.979,64.437-38.409,79.238c-18.465,7.938-37.939,10.291-57.668,8.823
			C370.661,257.495,358.07,248.45,346.994,237.715z"/>
	</g>
</g>
</svg>
